<svg xmlns="http://www.w3.org/2000/svg" x="0px" y="0px" width="46px" height="20px" viewBox="0 0 46 20" enable-background="new 0 0 46 20" xml:space="preserve">
	<path fill="#E45D8B" d="M12,12.9c-1.5,0-2.7-1.2-2.7-2.7s1.2-2.7,2.7-2.7s2.7,1.2,2.7,2.7S13.5,12.9,12,12.9z M12,9.1
	c-0.6,0-1.2,0.5-1.2,1.2c0,0.6,0.5,1.2,1.2,1.2c0.6,0,1.2-0.5,1.2-1.2S12.5,9.1,12,9.1z" />
	<path fill="#E45D8B" d="M22.8,12.9c-1.5,0-2.7-1.2-2.7-2.7s1.2-2.7,2.7-2.7s2.7,1.2,2.7,2.7S24.3,12.9,22.8,12.9z M22.8,9.1
	c-0.6,0-1.2,0.5-1.2,1.2c0,0.6,0.5,1.2,1.2,1.2c0.6,0,1.2-0.5,1.2-1.2S23.4,9.1,22.8,9.1z" />
	<path fill="#E45D8B" d="M33.5,12.9c-1.5,0-2.7-1.2-2.7-2.7s1.2-2.7,2.7-2.7c1.5,0,2.7,1.2,2.7,2.7S35.1,12.9,33.5,12.9z M33.5,9.1
	c-0.6,0-1.2,0.5-1.2,1.2c0,0.6,0.5,1.2,1.2,1.2c0.6,0,1.2-0.5,1.2-1.2S34.2,9.1,33.5,9.1z" />
	<path fill="#E45D8B" d="M13.3,10.9V9.4h8.3v1.5H13.3z" />
	<path fill="#E45D8B" d="M24,10.9V9.4h8.3v1.5H24z" />
</svg>