<?xml version="1.0" encoding="UTF-8"?>
<svg width="22px" height="22px" viewBox="0 0 22 22" version="1.1" xmlns="http://www.w3.org/2000/svg" xmlns:xlink="http://www.w3.org/1999/xlink">
    <title>information</title>
    <g id="Page-1" stroke="none" stroke-width="1" fill="none" fill-rule="evenodd">
        <g id="information" fill="#000000" fill-rule="nonzero">
            <path d="M11,0 C4.9346,0 0,4.93466667 0,11.0000667 C0,17.0654667 4.9346,22 11,22 C17.0654,22 22,17.0654667 22,11.0000667 C22,4.93466667 17.0654,0 11,0 Z M11,20 C6.03733333,20 2,15.9626667 2,11.0000667 C2,6.03746667 6.03733333,2 11,2 C15.9626667,2 20,6.03746667 20,11.0000667 C20,15.9626667 15.9626,20 11,20 Z" id="Shape"></path>
            <path d="M10.9998667,4.66666667 C10.2648,4.66666667 9.6668,5.26506667 9.6668,6.0006 C9.6668,6.73546667 10.2648,7.33333333 10.9998667,7.33333333 C11.7349333,7.33333333 12.3329333,6.73546667 12.3329333,6.0006 C12.3329333,5.26506667 11.7349333,4.66666667 10.9998667,4.66666667 Z" id="Path"></path>
            <path d="M11,9.33333333 C10.4477333,9.33333333 10,9.78106667 10,10.3333333 L10,16.3333333 C10,16.8856 10.4477333,17.3333333 11,17.3333333 C11.5522667,17.3333333 12,16.8856 12,16.3333333 L12,10.3333333 C12,9.78106667 11.5522667,9.33333333 11,9.33333333 Z" id="Path"></path>
        </g>
    </g>
</svg>