<svg id="icon-total-winnings" xmlns="http://www.w3.org/2000/svg" width="19.826" height="32.484" viewBox="0 0 19.826 32.484">
  <path id="Path_1172" data-name="Path 1172" d="M9.913,3.882a.406.406,0,0,0,.406-.406V.406a.406.406,0,0,0-.812,0v3.07a.406.406,0,0,0,.406.406Zm6.139.895a.41.41,0,0,0,.185.045A.4.4,0,0,0,16.6,4.6L18,1.87a.406.406,0,1,0-.722-.371l-1.4,2.731A.406.406,0,0,0,16.052,4.777ZM3.228,4.6a.405.405,0,0,0,.361.22.394.394,0,0,0,.185-.044A.405.405,0,0,0,3.95,4.23L2.55,1.5a.406.406,0,1,0-.723.37L3.227,4.6ZM10.32,32.078v-3.07a.407.407,0,0,0-.813,0v3.07a.406.406,0,0,0,.812,0Zm-8.132-.872a.4.4,0,0,0,.361-.22l1.4-2.732a.406.406,0,1,0-.722-.371l-1.4,2.732a.406.406,0,0,0,.361.591Zm15.451,0a.394.394,0,0,0,.184-.045A.4.4,0,0,0,18,30.615l-1.4-2.732a.406.406,0,1,0-.723.371l1.4,2.731a.409.409,0,0,0,.363.221ZM9.913,26.155A9.913,9.913,0,1,0,0,16.242,9.924,9.924,0,0,0,9.913,26.155ZM3.2,10.1l2.238,2.238a5.919,5.919,0,0,0-1.45,3.494H.823A9.069,9.069,0,0,1,3.2,10.1ZM19,15.836H15.836a5.9,5.9,0,0,0-1.449-3.494L16.626,10.1A9.068,9.068,0,0,1,19,15.836Zm-2.378,6.545-2.239-2.239a5.913,5.913,0,0,0,1.45-3.494H19A9.071,9.071,0,0,1,16.626,22.381ZM9.913,11.11a5.131,5.131,0,1,1-5.132,5.131A5.137,5.137,0,0,1,9.913,11.11Zm-3.9,9.606a5.908,5.908,0,0,0,3.494,1.448v3.168a9.066,9.066,0,0,1-5.732-2.378Zm4.306,1.448a5.908,5.908,0,0,0,3.494-1.448l2.238,2.238a9.066,9.066,0,0,1-5.732,2.378V22.164Zm3.494-10.4a5.912,5.912,0,0,0-3.494-1.449V7.152A9.055,9.055,0,0,1,16.051,9.53l-2.238,2.238ZM9.507,10.318a5.9,5.9,0,0,0-3.494,1.449L3.775,9.53A9.064,9.064,0,0,1,9.507,7.152v3.167ZM3.99,16.65a5.9,5.9,0,0,0,1.449,3.493L3.2,22.381A9.077,9.077,0,0,1,.822,16.648H3.99Z"/>
  <path id="Path_1173" data-name="Path 1173" d="M9.887,16.648H9.94a.894.894,0,1,1-.9.894.407.407,0,0,0-.813,0,1.7,1.7,0,0,0,1.276,1.643v.567a.406.406,0,1,0,.812,0V19.2a1.7,1.7,0,0,0-.379-3.366H9.887a.894.894,0,1,1,.9-.893.406.406,0,1,0,.812,0A1.706,1.706,0,0,0,10.319,13.3v-.567a.406.406,0,0,0-.812,0v.55a1.7,1.7,0,0,0,.38,3.366Z"/>
</svg>
