<?xml version="1.0" encoding="UTF-8"?>
<svg width="22px" height="22px" viewBox="0 0 22 22" version="1.1" xmlns="http://www.w3.org/2000/svg" xmlns:xlink="http://www.w3.org/1999/xlink">
    <title>icon-add</title>
    <g id="Page-1" stroke="none" stroke-width="1" fill="none" fill-rule="evenodd">
        <g id="icon-add" fill="#6F6C99">
            <path d="M11,20 C15.9706,20 20,15.9706 20,11 C20,6.02944 15.9706,2 11,2 C6.02944,2 2,6.02944 2,11 C2,15.9706 6.02944,20 11,20 Z M11,22 C17.0751,22 22,17.0751 22,11 C22,4.92487 17.0751,0 11,0 C4.92487,0 0,4.92487 0,11 C0,17.0751 4.92487,22 11,22 Z" id="Shape"></path>
            <path d="M17.0170349,10.2139328 L11.7867844,10.2139328 L11.7867844,4.98368232 C11.7867844,4.54950217 11.434881,4.19759877 11.0007009,4.19759877 C10.5665207,4.19759877 10.2146173,4.54950217 10.2146173,4.98368232 L10.2146173,10.2139328 L4.98436681,10.2139328 C4.55018666,10.2139328 4.19828327,10.5658362 4.19828327,11.0000164 C4.19828327,11.4341965 4.55018666,11.7860999 4.98436681,11.7860999 L10.2146173,11.7860999 L10.2146173,17.0163504 C10.2146173,17.4505306 10.5665207,17.802434 11.0007009,17.802434 C11.434881,17.802434 11.7867844,17.4505306 11.7867844,17.0163504 L11.7867844,11.7860999 L17.0170349,11.7860999 C17.4512151,11.7860999 17.8031185,11.4341965 17.8031185,11.0000164 C17.8031185,10.5658362 17.4512151,10.2139328 17.0170349,10.2139328 Z" id="Path" fill-rule="nonzero"></path>
        </g>
    </g>
</svg>