<svg xmlns="http://www.w3.org/2000/svg" width="26" height="30" viewBox="0 0 26 30">
  <g id="icon-ballance" transform="translate(-2459 -5721)">
    <path id="Vector" d="M23.622,15.123a14.75,14.75,0,0,0-5.334-.894,17.5,17.5,0,0,0-2.864.228V3.324c0-.948-.845-1.811-2.378-2.43A14.754,14.754,0,0,0,7.712,0,14.75,14.75,0,0,0,2.378.894C.845,1.513,0,2.376,0,3.324v17.8c0,.847.683,1.634,1.93,2.232a6.962,6.962,0,0,0,1.993,4.58l.023.029a.215.215,0,0,0,.028.023,6.864,6.864,0,0,0,8.755.8,14.455,14.455,0,0,0,5.559.99,14.728,14.728,0,0,0,5.334-.9C25.155,28.263,26,27.4,26,26.451v-8.9c0-.948-.845-1.811-2.378-2.43ZM2.642,1.56A14.044,14.044,0,0,1,7.712.717a14.044,14.044,0,0,1,5.07.843c1.226.495,1.93,1.138,1.93,1.764s-.7,1.27-1.93,1.765a14.026,14.026,0,0,1-5.07.843,14.044,14.044,0,0,1-5.07-.843C1.416,4.594.713,3.95.713,3.324s.7-1.27,1.93-1.764Zm-1.93,3.2a5.371,5.371,0,0,0,1.666,1,14.75,14.75,0,0,0,5.334.894,14.75,14.75,0,0,0,5.334-.894,5.383,5.383,0,0,0,1.666-1V6.29c0,.627-.7,1.27-1.93,1.765a14.044,14.044,0,0,1-5.07.843,14.044,14.044,0,0,1-5.07-.843C1.417,7.56.713,6.917.713,6.29V4.758Zm0,2.966a5.351,5.351,0,0,0,1.666,1,14.728,14.728,0,0,0,5.334.895,14.728,14.728,0,0,0,5.334-.9,5.363,5.363,0,0,0,1.666-1V9.256c0,.627-.7,1.27-1.93,1.764a14.021,14.021,0,0,1-5.07.844,14.021,14.021,0,0,1-5.07-.844C1.416,10.526.712,9.883.712,9.256V7.724Zm0,2.966a5.351,5.351,0,0,0,1.666,1,14.728,14.728,0,0,0,5.334.9,14.728,14.728,0,0,0,5.334-.9,5.363,5.363,0,0,0,1.666-1v1.532c0,.627-.7,1.27-1.93,1.764a14.023,14.023,0,0,1-5.07.843,14.044,14.044,0,0,1-5.07-.843c-1.226-.495-1.93-1.138-1.93-1.764V10.69Zm0,2.966a5.351,5.351,0,0,0,1.666,1,14.728,14.728,0,0,0,5.334.9,14.728,14.728,0,0,0,5.334-.9,5.363,5.363,0,0,0,1.666-1v.938c-.388.085-.761.184-1.115.3A5.386,5.386,0,0,0,11,16.427a6.853,6.853,0,0,0-6.374,1.089C2.278,17.066.71,16.139.71,15.188V13.656Zm12.827,9.023a4.754,4.754,0,0,0-1.13-2.743l1.044-1.052a6.252,6.252,0,0,1,1.563,3.8H13.539Zm1.477.717a6.228,6.228,0,0,1-.666,2.483l-.022.043a6.19,6.19,0,0,1-.872,1.271L12.41,26.139A4.762,4.762,0,0,0,13.539,23.4h1.477Zm-3.11-3.967a4.683,4.683,0,0,0-2.72-1.138V16.8a6.147,6.147,0,0,1,3.765,1.575l-1.044,1.052Zm-7.2-1.052A6.142,6.142,0,0,1,8.474,16.8v1.49a4.675,4.675,0,0,0-2.72,1.137Zm.54,1.56a4.764,4.764,0,0,0-1.13,2.742H2.645a6.251,6.251,0,0,1,1.562-3.8l1.044,1.052ZM.711,16.62a7.189,7.189,0,0,0,3.244,1.486l-.01.008a.345.345,0,0,0-.023.028,7,7,0,0,0-1.268,1.78C1.432,19.43.712,18.78.712,18.154V16.62Zm1.228,5.932C1.153,22.118.711,21.61.711,21.12V19.59a5.379,5.379,0,0,0,1.656.988A6.949,6.949,0,0,0,1.939,22.552Zm.7.844H4.121a4.751,4.751,0,0,0,1.13,2.742L4.206,27.19A6.237,6.237,0,0,1,2.643,23.4Zm5.83,5.876A6.149,6.149,0,0,1,4.709,27.7l1.044-1.052a4.683,4.683,0,0,0,2.72,1.138v1.488ZM4.818,23.037A4.046,4.046,0,0,1,7.294,19.3a3.991,3.991,0,0,1,4.374.877,4.063,4.063,0,0,1-.609,6.223,3.987,3.987,0,0,1-5.065-.5,4.068,4.068,0,0,1-1.176-2.859Zm7.663,5.047-.006,0a6.116,6.116,0,0,1-3.289,1.183V27.784a4.681,4.681,0,0,0,2.721-1.139L12.952,27.7a5.934,5.934,0,0,1-.471.384Zm12.808-1.633c0,.627-.7,1.27-1.931,1.764a14.023,14.023,0,0,1-5.07.843,14.345,14.345,0,0,1-4.91-.78c.09-.08.179-.162.265-.246l.068-.068,0,0,0,0a6.988,6.988,0,0,0,1.124-1.485,17.127,17.127,0,0,0,3.446.338,14.724,14.724,0,0,0,5.334-.9,5.369,5.369,0,0,0,1.667-1v1.532Zm0-2.966c0,.627-.7,1.27-1.931,1.765a14.044,14.044,0,0,1-5.07.843,16.637,16.637,0,0,1-3.117-.286,6.981,6.981,0,0,0,.54-2.147,17.637,17.637,0,0,0,2.577.184,14.724,14.724,0,0,0,5.334-.9,5.369,5.369,0,0,0,1.667-1Zm0-2.966c0,.627-.7,1.27-1.931,1.765a14.023,14.023,0,0,1-5.07.843,16.89,16.89,0,0,1-2.551-.188,6.969,6.969,0,0,0-.425-2.309,17.562,17.562,0,0,0,2.976.248,14.754,14.754,0,0,0,5.334-.894,5.383,5.383,0,0,0,1.666-1v1.532Zm-1.932-1.2a14.009,14.009,0,0,1-5.069.843,16.44,16.44,0,0,1-3.326-.328,6.991,6.991,0,0,0-1.224-1.69l-.023-.03-.028-.022a6.932,6.932,0,0,0-1.98-1.383A6.87,6.87,0,0,1,15.1,15.243a.321.321,0,0,0,.087-.018,16.676,16.676,0,0,1,3.106-.28,14.018,14.018,0,0,1,5.07.844c1.227.495,1.93,1.138,1.93,1.764s-.7,1.27-1.93,1.765Z" transform="translate(2459 5721)"/>
  </g>
</svg>
