<svg id="icon-winning-percantage" xmlns="http://www.w3.org/2000/svg" width="28" height="28" viewBox="0 0 28 28">
  <path id="Path_1174" data-name="Path 1174" d="M24.964,5.153l-2.3-.335-1.03-2.085a.349.349,0,0,0-.627,0l-1.03,2.085-2.3.335a.349.349,0,0,0-.194.6l1.665,1.624-.394,2.292a.352.352,0,0,0,.14.342.347.347,0,0,0,.368.026L21.32,8.951l2.058,1.082a.348.348,0,0,0,.163.04.348.348,0,0,0,.345-.408l-.393-2.292,1.665-1.624a.349.349,0,0,0-.194-.6ZM22.873,7a.35.35,0,0,0-.1.31l.3,1.774-1.593-.838a.348.348,0,0,0-.326,0l-1.594.838.305-1.775a.349.349,0,0,0-.1-.31l-1.29-1.256,1.782-.259a.35.35,0,0,0,.264-.191l.8-1.615.8,1.615a.35.35,0,0,0,.264.191l1.782.26L22.872,7Z"/>
  <path id="Path_1175" data-name="Path 1175" d="M21.32,0A6.68,6.68,0,1,0,28,6.68,6.687,6.687,0,0,0,21.32,0Zm0,12.66A5.98,5.98,0,1,1,27.3,6.68,5.986,5.986,0,0,1,21.32,12.66ZM4.507,7.373,4.114,9.665a.351.351,0,0,0,.345.409.36.36,0,0,0,.163-.04L6.68,8.95l2.059,1.082a.35.35,0,0,0,.508-.368L8.853,7.372l1.665-1.624a.349.349,0,0,0-.193-.6l-2.3-.335L6.994,2.732a.364.364,0,0,0-.628,0L5.337,4.818l-2.3.335a.349.349,0,0,0-.194.6L4.507,7.373ZM5.62,5.484a.351.351,0,0,0,.264-.191l.8-1.615.8,1.615a.35.35,0,0,0,.263.191l1.782.26L8.232,7a.349.349,0,0,0-.1.31l.305,1.774L6.843,8.246a.352.352,0,0,0-.326,0l-1.593.838.3-1.775a.351.351,0,0,0-.1-.31L3.838,5.743,5.62,5.484Z"/>
  <path id="Path_1176" data-name="Path 1176" d="M6.68,13.36A6.68,6.68,0,1,0,0,6.68,6.687,6.687,0,0,0,6.68,13.36ZM6.68.7A5.98,5.98,0,1,1,.7,6.68,5.987,5.987,0,0,1,6.68.7ZM24.964,19.792l-2.3-.335-1.03-2.085a.35.35,0,0,0-.627,0l-1.03,2.085-2.3.335a.35.35,0,0,0-.195.6l1.666,1.624L18.753,24.3a.351.351,0,0,0,.14.342.342.342,0,0,0,.2.067.348.348,0,0,0,.163-.04l2.059-1.082,2.058,1.082a.347.347,0,0,0,.369-.027.351.351,0,0,0,.139-.342l-.393-2.292,1.665-1.623a.352.352,0,0,0,.089-.359.348.348,0,0,0-.283-.238Zm-2.092,1.847a.349.349,0,0,0-.1.31l.3,1.774-1.593-.837a.348.348,0,0,0-.326,0l-1.594.837.305-1.774a.349.349,0,0,0-.1-.31l-1.29-1.257,1.781-.258a.351.351,0,0,0,.264-.192l.8-1.614.8,1.614a.355.355,0,0,0,.264.192l1.782.258Z"/>
  <path id="Path_1177" data-name="Path 1177" d="M21.32,14.64A6.68,6.68,0,1,0,28,21.32a6.687,6.687,0,0,0-6.68-6.68Zm0,12.66a5.98,5.98,0,1,1,5.98-5.98A5.987,5.987,0,0,1,21.32,27.3ZM4.507,22.012,4.114,24.3a.351.351,0,0,0,.14.342.343.343,0,0,0,.368.027L6.68,23.59l2.059,1.082a.349.349,0,0,0,.368-.027.35.35,0,0,0,.14-.342l-.394-2.292,1.665-1.623a.35.35,0,0,0,.089-.359.346.346,0,0,0-.283-.238l-2.3-.335-1.03-2.085a.364.364,0,0,0-.628,0L5.337,19.456l-2.3.335a.349.349,0,0,0-.194.6l1.665,1.624ZM5.62,20.124a.355.355,0,0,0,.264-.192l.8-1.614.8,1.614a.353.353,0,0,0,.264.192l1.781.258-1.29,1.257a.349.349,0,0,0-.1.31l.305,1.774-1.594-.837a.352.352,0,0,0-.326,0l-1.593.837.3-1.774a.349.349,0,0,0-.1-.31l-1.29-1.257,1.782-.258Z"/>
  <path id="Path_1178" data-name="Path 1178" d="M6.68,28A6.68,6.68,0,1,0,0,21.32,6.687,6.687,0,0,0,6.68,28Zm0-12.66A5.98,5.98,0,1,1,.7,21.32,5.986,5.986,0,0,1,6.68,15.34Z"/>
</svg>
