<svg xmlns="http://www.w3.org/2000/svg" x="0px" y="0px" width="46px" height="20px" viewBox="0 0 46 20" enable-background="new 0 0 46 20" xml:space="preserve">
	<g id="icon-down" transform="translate(-2286.25 -5720.25)">
		<g id="Path_1167">
			<path fill="#E45D8B" d="M2323.4,5737.6c-0.2,0-0.4-0.1-0.5-0.2l-6.5-6.5c-0.2-0.2-0.3-0.5-0.2-0.8s0.4-0.5,0.7-0.5h3.1v-5.4h1.5
			v6.1c0,0.4-0.3,0.8-0.8,0.8h-2l4.7,4.7l4.7-4.7h-2c-0.4,0-0.8-0.3-0.8-0.8v-5.4h-1.9v-1.5h2.7c0.4,0,0.8,0.3,0.8,0.8v5.4h3.1
			c0.3,0,0.6,0.2,0.7,0.5c0.1,0.3,0.1,0.6-0.2,0.8l-6.5,6.5C2323.8,5737.5,2323.6,5737.6,2323.4,5737.6z" />
		</g>
		<g id="Ellipse_37">
			<path fill="#E45D8B" d="M2290.5,5732.6c-1.5,0-2.7-1.2-2.7-2.7s1.2-2.7,2.7-2.7s2.7,1.2,2.7,2.7
			C2293.3,5731.4,2292,5732.6,2290.5,5732.6z M2290.5,5728.8c-0.6,0-1.2,0.5-1.2,1.2c0,0.6,0.5,1.2,1.2,1.2c0.6,0,1.2-0.5,1.2-1.2
			C2291.8,5729.3,2291.3,5728.8,2290.5,5728.8z" />
		</g>
		<g id="Ellipse_38">
			<path fill="#E45D8B" d="M2299.8,5726.5c-1.5,0-2.7-1.2-2.7-2.7s1.2-2.7,2.7-2.7s2.7,1.2,2.7,2.7S2301.3,5726.5,2299.8,5726.5z
			 M2299.8,5722.6c-0.6,0-1.2,0.5-1.2,1.2c0,0.6,0.5,1.2,1.2,1.2c0.6,0,1.2-0.5,1.2-1.2S2300.3,5722.6,2299.8,5722.6z" />
		</g>
		<g id="Ellipse_39">
			<path fill="#E45D8B" d="M2312.8,5739.5c-1.5,0-2.7-1.2-2.7-2.7s1.2-2.7,2.7-2.7s2.7,1.2,2.7,2.7S2314.1,5739.5,2312.8,5739.5z
			 M2312.8,5735.6c-0.6,0-1.2,0.5-1.2,1.2s0.5,1.2,1.2,1.2c0.6,0,1.2-0.5,1.2-1.2S2313.3,5735.6,2312.8,5735.6z" />
		</g>
		<g id="Path_1168">

			<rect x="2292.1" y="5726" transform="matrix(0.8159 -0.5782 0.5782 0.8159 -2888.6848 2381.251)" fill="#E45D8B" width="5.8" height="1.5" />
		</g>
		<g id="Path_1169">

			<rect x="2304.1" y="5723.6" transform="matrix(0.7071 -0.7071 0.7071 0.7071 -3375.9783 3307.7634)" fill="#E45D8B" width="1.5" height="10.8" />
		</g>
	</g>
</svg>