<svg width="22" height="22" viewBox="0 0 22 22" fill="none" xmlns="http://www.w3.org/2000/svg">
  <path
    d="M18.2763 7.33328H19.2498C19.7361 7.33328 20.2024 7.52644 20.5462 7.87025C20.89 8.21407 21.0832 8.68038 21.0832 9.16661V12.8333C21.0832 13.3195 20.89 13.7858 20.5462 14.1296C20.2024 14.4735 19.7361 14.6666 19.2498 14.6666H18.2763C18.0529 16.4388 17.1903 18.0685 15.8506 19.2499C14.5109 20.4314 12.7861 21.0833 10.9998 21.0833V19.2499C12.4585 19.2499 13.8575 18.6705 14.8889 17.639C15.9204 16.6076 16.4998 15.2086 16.4998 13.7499V8.24995C16.4998 6.79126 15.9204 5.39231 14.8889 4.36086C13.8575 3.32941 12.4585 2.74995 10.9998 2.74995C9.54115 2.74995 8.1422 3.32941 7.11075 4.36086C6.0793 5.39231 5.49984 6.79126 5.49984 8.24995V14.6666H2.74984C2.26361 14.6666 1.79729 14.4735 1.45347 14.1296C1.10966 13.7858 0.916504 13.3195 0.916504 12.8333V9.16661C0.916504 8.68038 1.10966 8.21407 1.45347 7.87025C1.79729 7.52644 2.26361 7.33328 2.74984 7.33328H3.72334C3.94703 5.56127 4.80966 3.93178 6.14936 2.75057C7.48906 1.56935 9.21376 0.917603 10.9998 0.917603C12.7859 0.917603 14.5106 1.56935 15.8503 2.75057C17.19 3.93178 18.0526 5.56127 18.2763 7.33328ZM2.74984 9.16661V12.8333H3.6665V9.16661H2.74984ZM18.3332 9.16661V12.8333H19.2498V9.16661H18.3332ZM7.11317 14.4695L8.08484 12.9149C8.95849 13.4621 9.96892 13.7516 10.9998 13.7499C12.0308 13.7516 13.0412 13.4621 13.9148 12.9149L14.8865 14.4695C13.7217 15.1993 12.3744 15.5854 10.9998 15.5833C9.62526 15.5854 8.27802 15.1993 7.11317 14.4695Z"
    fill="#6F6C99" />
</svg>