<svg width="40" height="46" viewBox="0 0 40 46" fill="none" xmlns="http://www.w3.org/2000/svg">
  <path
    d="M30.9285 7.70053C30.9285 7.667 30.9285 7.667 30.9285 7.63348C30.5261 4.68301 28.1792 2.33605 25.2623 1.90019C23.6864 1.66549 22.1777 2.00077 20.9371 2.73839C19.9984 3.30836 18.8249 3.27483 17.8526 2.70486C16.6456 2.00077 15.2038 1.69902 13.6951 1.90019C10.8787 2.26899 8.5653 4.41479 7.99533 7.16408C7.9618 7.39878 7.89474 7.63348 7.89474 7.86817C7.79416 9.00812 6.98949 9.98044 5.91659 10.4163C3.50257 11.4221 1.82617 13.8026 1.82617 16.5855V42.972C1.82617 43.542 2.26204 43.9778 2.83201 43.9778H36.36C36.93 43.9778 37.3659 43.542 37.3659 42.972V16.5855C37.3659 13.702 35.5554 11.2545 33.0072 10.3157C31.8673 9.87985 31.0626 8.87401 30.9285 7.70053Z"
    fill="#D3D8DD" />
  <path fill-rule="evenodd" clip-rule="evenodd"
    d="M25.2623 1.90025C28.1792 2.33612 30.5262 4.68308 30.9285 7.63354V7.7006C31.0626 8.87408 31.8673 9.87992 33.0073 10.3158C35.5554 11.2546 37.3659 13.7021 37.3659 16.5855V42.9721C37.3659 43.5421 36.93 43.9779 36.3601 43.9779H2.83205C2.26207 43.9779 1.82621 43.5421 1.82621 42.9721V16.5855C1.82621 13.8027 3.50261 11.4222 5.91662 10.4164C6.98952 9.9805 7.79419 9.00819 7.89478 7.86824C7.89478 7.71178 7.92458 7.55532 7.95438 7.39885C7.96928 7.32062 7.98419 7.24239 7.99536 7.16415C8.56534 4.41486 10.8788 2.26906 13.6951 1.90025C15.2039 1.69909 16.6456 2.00084 17.8526 2.70493C18.8249 3.2749 19.9984 3.30843 20.9372 2.73845C22.1777 2.00084 23.6865 1.66556 25.2623 1.90025ZM13.4559 0.0897857C9.87561 0.559553 6.93604 3.27775 6.20718 6.79343L6.19559 6.84935L6.18751 6.90589C6.18151 6.94788 6.1774 6.96882 6.16964 7.00837C6.16251 7.0447 6.15231 7.09672 6.13473 7.19516C6.11212 7.32178 6.0797 7.51896 6.07087 7.74969C6.02111 8.10814 5.73572 8.51871 5.22928 8.72445L5.22175 8.72751L5.21424 8.73064C2.13436 10.0139 0 13.0497 0 16.5855V42.9721C0 44.5506 1.25348 45.8041 2.83205 45.8041H36.3601C37.9386 45.8041 39.1921 44.5506 39.1921 42.9721V16.5855C39.1921 12.9213 36.8913 9.80663 33.6516 8.60699C33.1495 8.41203 32.8334 8.00259 32.7547 7.5727V7.5096L32.738 7.3868C32.2251 3.62545 29.2451 0.648901 25.5322 0.0940994L25.5313 0.0939708C23.5287 -0.204286 21.5965 0.221749 20.0038 1.16876L19.9966 1.17307L19.9894 1.17744C19.6801 1.36523 19.228 1.39431 18.7761 1.12946L18.7728 1.12749C17.2099 0.215794 15.3593 -0.163547 13.4559 0.0897857Z"
    fill="#444B54" />
  <path
    d="M14.8351 5.08533C12.9911 5.08533 11.4823 6.59409 11.4823 8.43813C11.4823 10.2822 12.9911 11.7909 14.8351 11.7909C16.6791 11.7909 18.1879 10.2822 18.1879 8.43813C18.1879 6.59409 16.6791 5.08533 14.8351 5.08533ZM8.49831 13.2326C6.65427 13.2326 5.14551 14.7414 5.14551 16.5854C5.14551 18.4295 6.65427 19.9382 8.49831 19.9382C10.3424 19.9382 11.8511 18.4295 11.8511 16.5854C11.8511 14.7414 10.3759 13.2326 8.49831 13.2326ZM30.5597 13.2326C28.7157 13.2326 27.2069 14.7414 27.2069 16.5854C27.2069 18.4295 28.7157 19.9382 30.5597 19.9382C32.4038 19.9382 33.9125 18.4295 33.9125 16.5854C33.9125 14.7414 32.4038 13.2326 30.5597 13.2326ZM24.2229 5.08533C22.3789 5.08533 20.8701 6.59409 20.8701 8.43813C20.8701 10.2822 22.3789 11.7909 24.2229 11.7909C26.067 11.7909 27.5757 10.2822 27.5757 8.43813C27.5757 6.59409 26.067 5.08533 24.2229 5.08533Z"
    fill="white" />
  <path fill-rule="evenodd" clip-rule="evenodd"
    d="M10.5692 8.43827C10.5692 6.08993 12.4868 4.17236 14.8351 4.17236C17.1835 4.17236 19.101 6.08993 19.101 8.43827C19.101 10.7866 17.1835 12.7042 14.8351 12.7042C12.4868 12.7042 10.5692 10.7866 10.5692 8.43827ZM14.8351 5.99857C13.4954 5.99857 12.3954 7.09852 12.3954 8.43827C12.3954 9.77802 13.4954 10.878 14.8351 10.878C16.1749 10.878 17.2748 9.77802 17.2748 8.43827C17.2748 7.09852 16.1749 5.99857 14.8351 5.99857ZM19.9571 8.43827C19.9571 6.08993 21.8746 4.17236 24.223 4.17236C26.5713 4.17236 28.4889 6.08993 28.4889 8.43827C28.4889 10.7866 26.5713 12.7042 24.223 12.7042C21.8746 12.7042 19.9571 10.7866 19.9571 8.43827ZM24.223 5.99857C22.8832 5.99857 21.7833 7.09852 21.7833 8.43827C21.7833 9.77802 22.8832 10.878 24.223 10.878C25.5627 10.878 26.6627 9.77802 26.6627 8.43827C26.6627 7.09852 25.5627 5.99857 24.223 5.99857ZM4.23242 16.5856C4.23242 14.2372 6.14999 12.3197 8.49833 12.3197C10.8861 12.3197 12.7642 14.2432 12.7642 16.5856C12.7642 18.9339 10.8467 20.8515 8.49833 20.8515C6.14999 20.8515 4.23242 18.9339 4.23242 16.5856ZM8.49833 14.1459C7.15858 14.1459 6.05863 15.2458 6.05863 16.5856C6.05863 17.9253 7.15858 19.0253 8.49833 19.0253C9.83807 19.0253 10.938 17.9253 10.938 16.5856C10.938 15.2399 9.86565 14.1459 8.49833 14.1459ZM26.2939 16.5856C26.2939 14.2372 28.2114 12.3197 30.5598 12.3197C32.9081 12.3197 34.8257 14.2372 34.8257 16.5856C34.8257 18.9339 32.9081 20.8515 30.5598 20.8515C28.2114 20.8515 26.2939 18.9339 26.2939 16.5856ZM30.5598 14.1459C29.22 14.1459 28.1201 15.2458 28.1201 16.5856C28.1201 17.9253 29.22 19.0253 30.5598 19.0253C31.8995 19.0253 32.9995 17.9253 32.9995 16.5856C32.9995 15.2458 31.8995 14.1459 30.5598 14.1459Z"
    fill="#444B54" />
  <path d="M25.4294 21.8494C24.5576 21.8494 23.8871 21.1453 23.8871 20.3071C23.8871 17.9601 22.0766 15.9484 19.7631 15.8143C17.2485 15.6802 15.1698 17.826 15.1698 20.3071C15.1698 21.1788 14.4657 21.8494 13.6275 21.8494C11.2805 21.8494 9.26887 23.6599 9.13476 25.9733C9.00064 28.4879 11.0123 30.5666 13.4934 30.5666H25.5635C28.0446 30.5666 30.0562 28.4879 29.9221 25.9733C29.788 23.6599 27.7763 21.8494 25.4294 21.8494Z" fill="white" />
  <path fill-rule="evenodd" clip-rule="evenodd"
    d="M14.257 20.3072C14.257 17.3459 16.7327 14.7384 19.8121 14.9026L19.8163 14.9029V14.9029C22.6406 15.0666 24.8005 17.5049 24.8005 20.3072C24.8005 20.6541 25.0751 20.9364 25.4297 20.9364C28.232 20.9364 30.6703 23.0963 30.834 25.9206L30.8342 25.9248C30.9966 28.9682 28.562 31.4799 25.5638 31.4799H13.4937C10.4954 31.4799 8.06093 28.9682 8.22325 25.9248L8.22347 25.9206L8.22348 25.9206C8.38721 23.0963 10.8255 20.9364 13.6278 20.9364C13.9747 20.9364 14.257 20.6617 14.257 20.3072ZM19.7127 16.7261C17.7638 16.6235 16.0832 18.3071 16.0832 20.3072C16.0832 21.6961 14.9573 22.7626 13.6278 22.7626C11.7369 22.7626 10.1524 24.2225 10.0468 26.0242C9.94208 28.009 11.5305 29.6537 13.4937 29.6537H25.5638C27.5269 29.6537 29.1153 28.0091 29.0107 26.0244C28.9052 24.2226 27.3206 22.7626 25.4297 22.7626C24.0408 22.7626 22.9743 21.6367 22.9743 20.3072C22.9743 18.4163 21.5143 16.8317 19.7127 16.7261Z"
    fill="#444B54" />
</svg>