<svg xmlns="http://www.w3.org/2000/svg" x="0px" y="0px" width="46px" height="20px" viewBox="0 0 46 20" enable-background="new 0 0 46 20" xml:space="preserve">
	<g id="Path_1170">
		<path fill="#1DD1A1" d="M39.6,19.1h-2.8v-1.5h2V12c0-0.4,0.3-0.8,0.8-0.8h2.2l-4.9-4.9L32,11.2h2.2c0.4,0,0.8,0.3,0.8,0.8v6.3h-1.5
		v-5.6h-3.2c-0.3,0-0.6-0.2-0.7-0.5s-0.1-0.6,0.2-0.8l6.7-6.7c0.3-0.3,0.8-0.3,1.1,0l6.7,6.7c0.2,0.2,0.3,0.5,0.2,0.8
		s-0.4,0.5-0.7,0.5h-3.2v5.6C40.4,18.7,40.1,19.1,39.6,19.1z" />
	</g>
	<g id="Ellipse_40">
		<path fill="#1DD1A1" d="M4.4,13.2c-1.6,0-2.8-1.3-2.8-2.8s1.2-2.8,2.8-2.8s2.8,1.2,2.8,2.8S5.9,13.2,4.4,13.2z M4.4,9.1
		c-0.7,0-1.3,0.6-1.3,1.3s0.6,1.3,1.3,1.3s1.2-0.6,1.2-1.3S5.1,9.1,4.4,9.1z" />
	</g>
	<g id="Ellipse_41">
		<path fill="#1DD1A1" d="M13.9,19.5c-1.5,0-2.8-1.2-2.8-2.8c0-1.5,1.2-2.8,2.8-2.8s2.8,1.2,2.8,2.8C16.7,18.3,15.4,19.5,13.9,19.5z
		 M13.9,15.5c-0.7,0-1.3,0.6-1.3,1.3c0,0.7,0.6,1.3,1.3,1.3s1.3-0.6,1.3-1.3C15.2,16,14.6,15.5,13.9,15.5z" />
	</g>
	<g id="Ellipse_42">
		<path fill="#1DD1A1" d="M27.4,6c-1.5,0-2.8-1.2-2.8-2.8s1.2-2.7,2.8-2.7c1.5,0,2.8,1.2,2.8,2.8S28.9,6,27.4,6z M27.4,2
		c-0.7,0-1.3,0.6-1.3,1.3s0.6,1.2,1.3,1.2c0.7,0,1.2-0.5,1.2-1.2S28.1,2,27.4,2z" />
	</g>
	<g id="Path_1171">
		<path fill="#1DD1A1" d="M11.1,16.2l-4.9-3.5L7,11.5l4.9,3.5L11.1,16.2z M15.9,15.6l-1.1-1.1l7.9-7.9l1.1,1.1L15.9,15.6z" />
	</g>
</svg>