<svg width="40" height="38" viewBox="0 0 40 38" fill="none" xmlns="http://www.w3.org/2000/svg">
  <path
    d="M35.1141 23.3422H31.6844C31.1544 23.3422 30.7491 22.9369 30.7491 22.4069C30.7491 21.8768 31.1544 21.4715 31.6844 21.4715H35.1141C35.6441 21.4715 36.0494 21.8768 36.0494 22.4069C36.0494 22.9369 35.6441 23.3422 35.1141 23.3422ZM8.61247 23.3422H5.18285C4.65282 23.3422 4.2475 22.9369 4.2475 22.4069C4.2475 21.8768 4.65282 21.4715 5.18285 21.4715H8.61247C9.1425 21.4715 9.54782 21.8768 9.54782 22.4069C9.54782 22.9369 9.1425 23.3422 8.61247 23.3422ZM32.838 30.6691C32.6821 30.6691 32.5262 30.6379 32.3704 30.5444L29.6578 28.9855C29.2213 28.7361 29.0655 28.1437 29.3149 27.7072C29.5643 27.2707 30.1567 27.1148 30.5932 27.3642L33.3057 28.9231C33.7422 29.1726 33.8981 29.7649 33.6487 30.2014C33.4616 30.5132 33.1498 30.6691 32.838 30.6691ZM10.1714 17.5742C10.0155 17.5742 9.8596 17.543 9.70371 17.4495L6.9912 15.8906C6.5547 15.6412 6.39881 15.0488 6.64823 14.6123C6.89766 14.1758 7.49005 14.0199 7.92655 14.2693L10.6391 15.8282C11.0756 16.0777 11.2314 16.67 10.982 17.1065C10.795 17.4183 10.4832 17.5742 10.1714 17.5742ZM30.1255 17.5742C29.8137 17.5742 29.502 17.4183 29.3149 17.1065C29.0655 16.67 29.2213 16.0777 29.6578 15.8282L32.3704 14.2693C32.8069 14.0199 33.3992 14.1758 33.6487 14.6123C33.8981 15.0488 33.7422 15.6412 33.3057 15.8906L30.5932 17.4495C30.4685 17.543 30.2814 17.5742 30.1255 17.5742ZM7.45887 30.6691C7.14709 30.6691 6.83531 30.5132 6.64823 30.2014C6.39881 29.7649 6.5547 29.1726 6.9912 28.9231L9.70371 27.3642C10.1402 27.1148 10.7326 27.2707 10.982 27.7072C11.2314 28.1437 11.0756 28.7361 10.6391 28.9855L7.92655 30.5444C7.77065 30.6379 7.61476 30.6691 7.45887 30.6691ZM1.44145 21.4715C1.19338 21.4715 0.955473 21.57 0.780061 21.7455C0.604649 21.9209 0.506104 22.1588 0.506104 22.4069C0.506104 22.6549 0.604649 22.8928 0.780061 23.0682C0.955473 23.2437 1.19338 23.3422 1.44145 23.3422C1.68952 23.3422 1.92743 23.2437 2.10285 23.0682C2.27826 22.8928 2.3768 22.6549 2.3768 22.4069C2.3768 22.1588 2.27826 21.9209 2.10285 21.7455C1.92743 21.57 1.68952 21.4715 1.44145 21.4715ZM38.8554 21.4715C38.6074 21.4715 38.3695 21.57 38.1941 21.7455C38.0186 21.9209 37.9201 22.1588 37.9201 22.4069C37.9201 22.6549 38.0186 22.8928 38.1941 23.0682C38.3695 23.2437 38.6074 23.3422 38.8554 23.3422C39.1035 23.3422 39.3414 23.2437 39.5168 23.0682C39.6923 22.8928 39.7908 22.6549 39.7908 22.4069C39.7908 22.1588 39.6923 21.9209 39.5168 21.7455C39.3414 21.57 39.1035 21.4715 38.8554 21.4715Z"
    fill="#D3D8DD" />
  <path d="M26.9765 13.0844L26.9142 12.3984C26.54 7.72168 24.0458 3.48143 20.1173 0.924805C16.1888 3.48143 13.6634 7.72168 13.3204 12.3984L13.2581 13.0844H26.9765Z" fill="white" />
  <path
    d="M19.7744 0.051881C19.712 0.0830594 19.6497 0.114238 19.6185 0.145416C15.4718 2.82675 12.7593 7.37879 12.3851 12.3361L12.3228 13.0221C12.2916 13.2715 12.3851 13.5521 12.5722 13.7392C12.7593 13.9262 13.0087 14.051 13.2581 14.051H19.182V16.857H14.2246C13.6946 16.857 13.2893 17.2623 13.2893 17.7924C13.2893 18.3224 13.6946 18.7277 14.2246 18.7277H19.182V21.5338H14.9729C14.4429 21.5338 14.0376 21.9391 14.0376 22.4691C14.0376 22.9991 14.4429 23.4045 14.9729 23.4045H19.182V26.2105H17.4672C16.9371 26.2105 16.5318 26.6158 16.5318 27.1459C16.5318 27.6759 16.9371 28.0812 17.4672 28.0812H19.182V31.7291C17.1866 33.631 14.8482 35.1587 12.2292 36.1876C11.7615 36.3746 11.5121 36.9359 11.6992 37.4035C11.8863 37.8712 12.4475 38.1206 12.9151 37.9336C15.5965 36.8423 18.0284 35.3458 20.1173 33.4127C22.2063 35.3458 24.607 36.8735 27.3195 37.9336C27.7872 38.1206 28.3484 37.9024 28.5355 37.4035C28.5667 37.2788 28.5978 37.1853 28.5978 37.0606C28.5978 36.6864 28.3796 36.3435 28.0055 36.1876C25.3553 35.1275 23.0169 33.631 21.0215 31.6979V28.05H22.9546C23.4846 28.05 23.8899 27.6447 23.8899 27.1147C23.8899 26.5846 23.4846 26.1793 22.9546 26.1793H21.0527V23.3733H25.3241C25.8541 23.3733 26.2595 22.968 26.2595 22.4379C26.2595 21.9079 25.8541 21.5026 25.3241 21.5026H21.0527V18.6965H26.1036C26.6336 18.6965 27.0389 18.2912 27.0389 17.7612C27.0389 17.2311 26.6336 16.8258 26.1036 16.8258H21.0527V14.0198H26.9766C27.226 14.0198 27.4754 13.9262 27.6625 13.708C27.8184 13.5209 27.9119 13.3027 27.9119 13.0844C27.9119 13.0532 27.9119 13.0221 27.9119 13.0221L27.8496 12.3361C27.4754 7.40997 24.7629 2.85793 20.6162 0.145416C20.3979 -0.0104757 20.055 -0.041654 19.7744 0.051881ZM25.9789 12.1491H14.287C14.6923 8.12707 16.8436 4.41685 20.1173 2.04729C23.4222 4.41685 25.5735 8.12707 25.9789 12.1491Z"
    fill="#444B54" />
</svg>