<svg xmlns="http://www.w3.org/2000/svg" width="18" height="18.51" viewBox="0 0 18 18.51">
  <g id="icon-winner" transform="translate(-2541 -5728)">
    <path id="Path_1181" data-name="Path 1181" d="M27.625,8.643H25.706a10.892,10.892,0,0,0-.068-1.3A.377.377,0,0,0,25.26,7H12.717a.381.381,0,0,0-.255.1.377.377,0,0,0-.123.244c0,.068-.057.56-.068,1.3H10.378A.377.377,0,0,0,10,9.021c0,.182,0,4.542,1.968,6.513a3.157,3.157,0,0,0,2.271.966,4.474,4.474,0,0,0,.318.378,5.445,5.445,0,0,0,1.945,1.4v1.677a.377.377,0,0,0,.379.378h.56v2.18H14.886a.377.377,0,0,0-.378.379v2.236a.383.383,0,0,0,.11.268.379.379,0,0,0,.268.11h8.24a.376.376,0,0,0,.377-.377V22.9a.376.376,0,0,0-.378-.378H20.571v-2.18h.53a.381.381,0,0,0,.378-.379V18.282a5.434,5.434,0,0,0,1.93-1.4c.114-.125.216-.254.318-.379a3.145,3.145,0,0,0,2.3-.964C28,13.562,28,9.2,28,9.024a.377.377,0,0,0-.108-.269.377.377,0,0,0-.122-.083.362.362,0,0,0-.145-.03ZM22.747,24.754H15.265v-1.48h7.482Zm-2.933-2.237H18.2v-2.18h1.616Zm.378-2.937H17.26V18.536a6.621,6.621,0,0,0,1.715.227H19a6.584,6.584,0,0,0,1.715-.227V19.58ZM19,18.017V18.4l-.026-.379a4.967,4.967,0,0,1-3.846-1.623c-2.27-2.54-2.15-7.316-2.066-8.626H24.908c.083,1.31.208,6.09-2.067,8.626A4.955,4.955,0,0,1,19,18.017ZM12.27,9.4a13.908,13.908,0,0,0,1.443,6.282,2.394,2.394,0,0,1-1.2-.693c-1.434-1.442-1.691-4.541-1.737-5.6l1.5.01Zm13.436,0H27.22c-.045,1.074-.3,4.163-1.74,5.6a2.387,2.387,0,0,1-1.238.69A13.635,13.635,0,0,0,25.706,9.4Z" transform="translate(2531 5721)"/>
    <path id="Path_1182" data-name="Path 1182" d="M19.083,8.556,20.331,11l2.712.431L21.1,13.374l.427,2.712-2.447-1.245-2.447,1.245.428-2.712-1.94-1.943L17.835,11l1.248-2.445Z" transform="translate(2531 5721)"/>
  </g>
</svg>
