<svg width="22" height="22" viewBox="0 0 22 22" fill="none" xmlns="http://www.w3.org/2000/svg">
  <path
    d="M11.094 4.93994C11.898 4.93994 12.612 5.06594 13.236 5.31794C13.872 5.55794 14.364 5.91194 14.712 6.37994C15.072 6.84794 15.252 7.41194 15.252 8.07194C15.252 8.77994 15.096 9.37394 14.784 9.85394C14.484 10.3219 14.076 10.6819 13.56 10.9339C13.044 11.1739 12.474 11.3299 11.85 11.4019L11.796 13.2199H9.94202V10.5019C10.734 10.4059 11.364 10.2679 11.832 10.0879C12.312 9.89594 12.66 9.66194 12.876 9.38594C13.092 9.09794 13.2 8.74394 13.2 8.32394C13.2 7.80794 13.014 7.39994 12.642 7.09994C12.282 6.78794 11.724 6.63194 10.968 6.63194C10.26 6.63194 9.68402 6.82994 9.24002 7.22594C8.79602 7.62194 8.53202 8.17394 8.44802 8.88194L6.66602 8.07194C6.79802 7.44794 7.05602 6.90194 7.44002 6.43394C7.82402 5.96594 8.32202 5.59994 8.93402 5.33594C9.54602 5.07194 10.266 4.93994 11.094 4.93994ZM10.86 14.6239C11.268 14.6239 11.592 14.7439 11.832 14.9839C12.084 15.2119 12.21 15.5179 12.21 15.9019C12.21 16.2859 12.084 16.5919 11.832 16.8199C11.592 17.0479 11.268 17.1619 10.86 17.1619C10.464 17.1619 10.14 17.0479 9.88802 16.8199C9.64802 16.5919 9.52802 16.2859 9.52802 15.9019C9.52802 15.5179 9.64802 15.2119 9.88802 14.9839C10.14 14.7439 10.464 14.6239 10.86 14.6239Z"
    fill="#6F6C99" />
  <path fill-rule="evenodd" clip-rule="evenodd" d="M11 20C15.9706 20 20 15.9706 20 11C20 6.02944 15.9706 2 11 2C6.02944 2 2 6.02944 2 11C2 15.9706 6.02944 20 11 20ZM11 22C17.0751 22 22 17.0751 22 11C22 4.92487 17.0751 0 11 0C4.92487 0 0 4.92487 0 11C0 17.0751 4.92487 22 11 22Z" fill="#6F6C99" />
</svg>