<svg xmlns="http://www.w3.org/2000/svg" width="18" height="18.534" viewBox="0 0 18 18.534">
  <g id="icon-loser" transform="translate(-2501 -5728)">
    <path id="Path_1179" data-name="Path 1179" d="M19.087,10.471,21.5,7.187,21.244,7l-2.7,3.527,2.434,2.144L19.8,14.463l.65-1.792L17.622,10.6l1.465-2.779-.1-.635-1.841,3.534L20,12.813l-.912,2.579.329.176,2.093-2.962-2.422-2.135Z" transform="translate(2491 5721)" fill-rule="evenodd"/>
    <path id="Path_1180" data-name="Path 1180" d="M25.706,8.666h1.92a.361.361,0,0,1,.144.03.38.38,0,0,1,.122.084.358.358,0,0,1,.08.123A.364.364,0,0,1,28,9.048c0,.182,0,4.538-1.972,6.514a3.147,3.147,0,0,1-2.3.965l-.055.066c-.084.1-.17.21-.264.312a5.434,5.434,0,0,1-1.93,1.4v1.677a.376.376,0,0,1-.378.378h-.53v2.18h2.554a.379.379,0,0,1,.378.379v2.237a.376.376,0,0,1-.378.378H14.886a.376.376,0,0,1-.378-.378V22.919a.377.377,0,0,1,.378-.378h2.555v-2.18h-.56a.377.377,0,0,1-.378-.379V18.306a5.461,5.461,0,0,1-1.946-1.4,4.335,4.335,0,0,1-.318-.379,3.151,3.151,0,0,1-2.271-.965C10,13.586,10,9.226,10,9.045a.376.376,0,0,1,.379-.378h1.892c.008-.556.042-.971.059-1.174.005-.068.009-.112.009-.129a.381.381,0,0,1,.123-.243.376.376,0,0,1,.255-.1h6.615l-.236.768h1.482l.687-.768h4a.381.381,0,0,1,.255.1.376.376,0,0,1,.123.243l0,.016a11,11,0,0,1,.066,1.286ZM15.265,24.777h7.482V23.3H15.265v1.48ZM18.2,22.541h1.616v-2.18H18.2ZM17.259,19.6h3.456V18.559A6.541,6.541,0,0,1,19,18.786h-.026a6.572,6.572,0,0,1-1.715-.227ZM19,18.419v-.378a4.961,4.961,0,0,0,3.841-1.624c2.275-2.536,2.15-7.316,2.067-8.625H13.062c-.083,1.31-.2,6.086,2.066,8.625a4.973,4.973,0,0,0,3.846,1.624l.026.378Zm-5.287-2.713a13.9,13.9,0,0,1-1.442-6.283l-1.5-.011c.046,1.06.3,4.16,1.737,5.6A2.394,2.394,0,0,0,13.713,15.706ZM27.22,9.423H25.706a13.633,13.633,0,0,1-1.464,6.29,2.372,2.372,0,0,0,1.237-.689c1.439-1.438,1.7-4.526,1.741-5.6Z" transform="translate(2491 5721)" fill-rule="evenodd"/>
  </g>
</svg>
