<svg width="22" height="22" viewBox="0 0 22 22" fill="none" xmlns="http://www.w3.org/2000/svg">
    <path d="M22,9.94381922 L22,10.1236156 C22,10.7720615 21.8477561,11.3625402 21.5447908,11.8950518 C21.2600948,12.4049661 20.9038442,12.7940336 20.4752777,13.0652019 C20.4912633,13.1821186 20.5049652,13.3088603 20.5140999,13.4454269 C20.5239957,13.5829761 20.5300855,13.7185602 20.5300855,13.8629868 C20.5300855,15.2689353 20.163939,16.5383173 19.431646,17.67408 C18.7891768,18.6899786 18.0119719,19.5074134 17.096225,20.1283494 C16.179717,20.748303 15.2243867,21.2130225 14.2264282,21.5185781 C13.6859624,21.6620222 13.1485416,21.7759914 12.6103595,21.8653984 C12.0759835,21.9548053 11.5385627,22 10.9988582,22 C10.1752189,22 9.36452026,21.9066631 8.56752362,21.7229368 C7.77281063,21.5392104 6.99865057,21.2660772 6.2480883,20.899607 C5.46098751,20.509557 4.71423134,20.0065202 4.01010346,19.3934441 C3.30293069,18.7793855 2.71831425,18.0110754 2.25168679,17.0875313 C2.00429051,16.6051268 1.81703055,16.0844051 1.68838448,15.5292962 C1.55973842,14.9732047 1.49503477,14.4190782 1.49503477,13.8639693 C1.49503477,13.7450875 1.50112453,13.6193283 1.50949794,13.4817792 C1.52015501,13.3461951 1.53081208,13.2194534 1.551365,13.1015541 C1.1022456,12.7822437 0.753607142,12.3892462 0.507733296,11.9314041 C0.186498737,11.3743301 0.015985606,10.7936763 0,10.1933726 C0,9.75616292 0.0738382755,9.34056806 0.226082142,8.94265809 C0.37756479,8.54671311 0.574720598,8.18908539 0.822116882,7.87075741 C1.08702121,7.55242944 1.377807,7.30385852 1.69523546,7.12700965 C2.01038026,6.94819578 2.35597384,6.86075384 2.72973254,6.86075384 L2.75789765,6.86075384 L2.97789004,6.86075384 C3.35393239,6.86075384 3.71018304,6.93247588 4.0474032,7.07395498 C4.36939898,7.21543408 4.66170721,7.41095034 4.92813397,7.65952126 C4.96315006,7.63594141 5.00501713,7.61137906 5.05145151,7.58878171 C5.09636345,7.56520186 5.14660392,7.54063951 5.20141172,7.51607717 C5.99079617,6.9619507 6.83270475,6.55814577 7.73474966,6.30269739 C8.63755579,6.0501965 9.53655583,5.88022508 10.4332722,5.79966059 C10.4332722,5.26518399 10.470572,4.7297249 10.5444102,4.18640586 C10.6167261,3.64308682 10.7682087,3.1272776 10.9973357,2.64487317 C11.1800284,2.22927831 11.41829,1.87852805 11.7121207,1.5877099 C12.0044289,1.29983923 12.3370818,1.09548053 12.7131241,0.977581279 L12.740528,0.977581279 C13.025224,0.906841729 13.3023079,0.872454448 13.5786305,0.872454448 C14.3124459,0.872454448 15.0538736,1.06502322 15.8036746,1.45703823 C16.1058787,0.880314398 16.5245493,0.45096463 17.0688211,0.18077885 L17.0939414,0.18077885 C17.432684,0.0599321186 17.7546798,0 18.0568838,0 C18.4329262,0 18.7625342,0.0835119686 19.0449465,0.249553412 L19.0738729,0.249553412 C19.5207086,0.461772061 19.896751,0.822347267 20.1997163,1.33029653 C20.5011591,1.86280815 20.6495969,2.43658449 20.6404623,3.0486781 C20.6404623,3.19212219 20.6298052,3.29823151 20.6130584,3.36995355 C20.5757586,3.78260093 20.4844123,4.15103608 20.337497,4.47722401 C20.1905816,4.80144695 20.0033217,5.08833512 19.7741947,5.33494105 C19.2695062,5.86843516 18.6985917,6.13272597 18.0576451,6.13272597 L17.7432615,6.13272597 C17.1007924,6.06395141 16.5618491,5.73874598 16.1211031,5.16103966 C15.9110065,4.88888889 15.7420158,4.58333333 15.6148922,4.24732047 C15.4862462,3.90934262 15.4215425,3.53403001 15.4215425,3.12138264 L15.4215425,3.01330832 C15.1200997,2.87182922 14.8178956,2.74508753 14.5134078,2.63210075 C14.2127262,2.52206145 13.8998651,2.46311183 13.5809142,2.46311183 L13.3335179,2.46311183 C12.8113214,2.53286888 12.4451749,2.83744194 12.2350784,3.36897106 C12.070655,3.73347624 11.9625618,4.12942122 11.9130826,4.55582351 C11.8628421,4.98222579 11.834677,5.40666309 11.834677,5.83208289 C12.7359607,5.90282244 13.615169,6.07377635 14.4806754,6.34592712 C15.3461818,6.6151304 16.1743884,7.01893533 16.9584443,7.55144695 L16.9866095,7.58681672 C17.0223868,7.58681672 17.061209,7.60941408 17.0969863,7.65755627 C17.2446628,7.51411218 17.3672191,7.41488031 17.4669389,7.35691318 C17.9320439,6.96588067 18.4687035,6.77724187 19.0746341,6.7880493 C19.3037611,6.7880493 19.5465901,6.82341908 19.8023598,6.89514112 L19.8297637,6.89514112 C20.386215,7.08476242 20.8779627,7.45516256 21.298917,8.01027153 C21.7099754,8.55457306 21.9451922,9.20105395 22,9.94381922 Z M3.71855645,8.66755984 C3.58991038,8.62138264 3.46963773,8.57422294 3.35621605,8.52608074 C3.24203315,8.47793855 3.11490952,8.45632369 2.97865126,8.45632369 L2.86751323,8.45632369 L2.84163178,8.45632369 C2.50288917,8.50348339 2.18241583,8.67247231 1.88097298,8.97016792 C1.61302377,9.2865309 1.46991454,9.66086102 1.44022698,10.0872633 L1.44022698,10.1933726 C1.44022698,10.4881208 1.50493063,10.7298142 1.63357669,10.920418 C1.72340057,11.1326367 1.8307325,11.2898357 1.94948272,11.39791 C2.15805681,10.8663809 2.41306529,10.375134 2.70917961,9.92515184 C3.00757759,9.47713469 3.34555898,9.05859235 3.71855645,8.66755984 Z M19.1286807,13.8983566 C19.1286807,13.4130046 19.0624546,12.9473026 18.9292412,12.496338 C18.7945054,12.0483208 18.6201862,11.622901 18.4017162,11.2210611 C17.9312827,10.4389961 17.363413,9.79742765 16.6836442,9.2865309 C16.0053977,8.78054662 15.2921352,8.3914791 14.541573,8.11834584 L14.1015882,7.97588424 L13.6760666,7.83538764 C13.2475001,7.7155234 12.8044704,7.62709896 12.3507837,7.56814934 C11.8986194,7.50919971 11.456351,7.47874241 11.0277845,7.47874241 C9.79004187,7.47874241 8.60862946,7.69390854 7.48354728,8.11736334 C6.73146258,8.39049661 6.02200616,8.78545909 5.34680461,9.30519829 C4.67388672,9.82493748 4.09916612,10.4733834 3.62416525,11.2534834 C3.1377461,12.0355484 2.89643957,12.9266702 2.89643957,13.9317613 C2.89643957,14.3218114 2.93221688,14.6578242 3.00605515,14.9427474 C3.17276219,15.6874777 3.47420504,16.3762058 3.91418982,17.0158092 C4.34503996,17.5709182 4.83602644,18.077885 5.39476143,18.5386745 L5.60181309,18.6634512 L5.7951628,18.8068953 C6.58226359,19.3384244 7.4211273,19.7265095 8.31403758,19.9672204 C9.20618664,20.2098964 10.1105152,20.3307431 11.0270233,20.3307431 L11.4928895,20.3307431 C11.6458946,20.3307431 11.8042282,20.3209182 11.9587558,20.2943909 C12.8745026,20.199089 13.7727414,19.9829403 14.6504273,19.6390675 C15.5288744,19.2971597 16.3441403,18.8000179 17.0947026,18.1505895 C17.599391,17.6897999 18.0104495,17.1818507 18.3301616,16.6257592 C18.7069652,16.0234905 18.9536002,15.3789746 19.0731117,14.693194 C19.108889,14.5752947 19.1279194,14.450518 19.1279194,14.3218114 L19.1286807,13.8983566 L19.1286807,13.8983566 Z M7.16688004,14.0742229 C7.29552611,14.14398 7.43635168,14.1793498 7.59316287,14.1793498 C7.94941352,14.1793498 8.27140929,14.0260807 8.55458289,13.7175777 C8.85754818,13.4002322 9.00826961,13.0091997 9.00826961,12.5503751 L9.00826961,12.5130404 L9.00826961,12.4423008 C9.00826961,12.0070561 8.86592159,11.634691 8.582748,11.3271704 C8.28130515,11.0078599 7.94941352,10.8477135 7.59316287,10.8477135 C7.48278606,10.8477135 7.3899173,10.8585209 7.31988513,10.8840657 C7.07248884,10.9312254 6.85401889,11.0569846 6.66752016,11.2652733 C6.47797654,11.471597 6.34933047,11.7231154 6.27473098,12.0198285 C6.23743123,12.0886031 6.21916197,12.1662201 6.21916197,12.2487496 L6.21916197,12.4806181 C6.21916197,12.8696856 6.30213487,13.2115934 6.46808069,13.5083065 C6.65001211,13.7922472 6.88218401,13.9799035 7.16688004,14.0742229 Z M14.857479,16.2209718 C14.7136085,16.1246874 14.5887686,16.0775277 14.4875264,16.0775277 C14.378672,16.0775277 14.2614442,16.1128975 14.1442165,16.185602 C13.1470191,16.9057699 12.0607591,17.2712576 10.8892426,17.2830475 C10.0107955,17.2830475 9.19552957,17.0649339 8.4449673,16.6277242 C8.33611294,16.579582 8.20213833,16.4685602 8.04761081,16.2907288 C8.01031106,16.267149 7.96996644,16.2455341 7.9250545,16.2209718 C7.87862012,16.1973919 7.83142452,16.1728296 7.78575136,16.1512147 C7.67689699,16.1030725 7.59392409,16.0775277 7.53835507,16.0775277 C7.4843085,16.0775277 7.40057437,16.1030725 7.29172001,16.1512147 L7.26127124,16.1512147 C7.15165565,16.1973919 7.04812982,16.3015363 6.94688765,16.4685602 C6.89284108,16.5864594 6.86543718,16.734816 6.86543718,16.9116649 C6.86543718,17.053144 6.89284108,17.200518 6.94688765,17.3528046 C7.00169544,17.4726688 7.08542957,17.5669882 7.19504515,17.6367453 C8.24781149,18.4885673 9.39953635,18.9149696 10.654787,18.9149696 C10.7194907,18.9149696 10.7895229,18.9149696 10.859555,18.9149696 C11.4639632,18.9149696 12.0508633,18.8403001 12.6179717,18.692926 C13.1858413,18.545552 13.7369641,18.310736 14.267534,17.9933905 C14.3398498,17.9452483 14.4174942,17.8971061 14.5019896,17.8499464 C14.58344,17.8037692 14.6709802,17.7448196 14.7608041,17.67408 C14.8544341,17.6249553 14.9328397,17.5551983 14.9975433,17.4608789 C15.0873672,17.3439621 15.1414138,17.2182029 15.1612055,17.0865488 C15.180236,17.0403716 15.1901318,16.9824044 15.1901318,16.9106824 C15.1901318,16.8409253 15.1711013,16.732851 15.1322792,16.5913719 C15.0759489,16.4135406 14.9846026,16.2897463 14.857479,16.2209718 Z M15.7207017,11.9815113 C15.7777932,12.1711325 15.8044358,12.3489639 15.8044358,12.5130404 C15.8044358,12.8795105 15.7207017,13.2115934 15.5562783,13.5083065 C15.3286737,13.825652 15.0949794,14.0152733 14.8567178,14.0742229 L14.8163731,14.0742229 C14.6694578,14.14398 14.5408117,14.1793498 14.4319574,14.1793498 C14.0901699,14.1793498 13.7902495,14.0506431 13.5253451,13.7912647 C13.2589184,13.5770811 13.0983011,13.2646481 13.0419709,12.8500357 L13.0419709,12.814666 C13.0259853,12.7449089 13.0168506,12.6417471 13.0168506,12.5120579 C13.0168506,12.1465702 13.1043909,11.8331547 13.2779489,11.5737763 C13.4423722,11.2780457 13.6585585,11.0727045 13.9234629,10.9518578 C14.0878862,10.8830832 14.2492647,10.846731 14.4037923,10.846731 C14.6884883,10.846731 14.9579599,10.9430154 15.2144908,11.1316542 C15.4809176,11.3576277 15.6499083,11.6396034 15.7207017,11.9815113 Z M16.794021,3.01330832 L16.794021,3.08306538 C16.794021,3.47409789 16.9127712,3.79930332 17.1502716,4.05966417 C17.4007128,4.32984995 17.6732293,4.46641658 17.9746722,4.46641658 L18.0568838,4.46641658 C18.3598491,4.46641658 18.6293208,4.32984995 18.8675824,4.05966417 C19.095187,3.7875134 19.2284004,3.46230797 19.2649389,3.08306538 L19.2649389,3.01330832 C19.2649389,2.59967846 19.133248,2.25777063 18.8675824,1.98561986 C18.6384554,1.68890675 18.3598491,1.54841015 18.0287187,1.56118257 C17.9015951,1.56118257 17.7957856,1.5710075 17.7128127,1.59556985 C17.4471472,1.6653269 17.2332445,1.83235084 17.0695824,2.0907467 C16.8830836,2.34226509 16.794021,2.64585566 16.794021,3.01330832 Z M20.584132,10.1236156 C20.584132,9.90943194 20.5361752,9.67854591 20.4463513,9.43095748 C20.3177053,9.13522687 20.1205495,8.8935334 19.8556451,8.70292962 C19.5899796,8.53885316 19.3197467,8.45632369 19.0449465,8.45632369 C18.779281,8.45632369 18.5341684,8.52608074 18.3058026,8.66854234 C18.6803225,9.05859235 19.0198263,9.47713469 19.3197467,9.92613433 C19.622712,10.3761165 19.8746756,10.8771883 20.0763987,11.4342622 C20.2050448,11.2908181 20.3177053,11.1198642 20.4204699,10.9214005 C20.5300855,10.681672 20.584132,10.4173812 20.584132,10.1236156 Z" fill="#6F6C99"></path>
</svg>