<svg width="45" height="28" viewBox="0 0 45 28" fill="none" xmlns="http://www.w3.org/2000/svg">
  <path d="M43.8398 8.19762C43.8398 4.277 34.2521 1.06921 22.4545 1.06921C10.657 1.06921 1.06934 4.277 1.06934 8.19762C1.06934 8.69661 4.13455 19.9951 4.27712 20.3159C5.91665 23.5593 13.8292 26.3751 22.4545 26.3751C31.0799 26.3751 38.9924 23.5593 40.632 20.3159C40.7745 19.9951 43.8398 8.69661 43.8398 8.19762Z" fill="#D3D8DD" />
  <path d="M32.7904 16.0033C32.6834 16.0033 32.6122 16.0033 32.5052 15.9677C32.2557 15.8964 31.9706 15.8251 31.7211 15.7538C28.8341 15.0053 25.6263 14.6133 22.4542 14.6133C20.7077 14.6133 18.9969 14.7202 17.2861 14.9697C16.7158 15.041 16.1455 14.6489 16.0743 14.043C16.003 13.4727 16.395 12.9024 17.001 12.8312C18.7831 12.5817 20.6364 12.4747 22.4542 12.4747C25.8045 12.4747 29.1905 12.9024 32.2201 13.6866C32.5052 13.7578 32.7904 13.8291 33.0755 13.9004C33.6458 14.0786 33.9666 14.6489 33.824 15.2192C33.6814 15.6825 33.2537 16.0033 32.7904 16.0033Z" fill="white" />
  <path
    d="M22.4545 0C11.5837 0 0 2.887 0 8.19767C0 11.1203 3.45728 13.544 9.76591 15.0409C10.8352 15.2904 11.6906 16.1458 11.9401 17.2507C12.3678 19.2823 14.0073 20.8506 16.0033 21.207C18.1774 21.5634 20.3516 21.7416 22.4545 21.7416C24.5217 21.7416 26.6959 21.5634 28.9057 21.1714C30.9373 20.8149 32.5412 19.2823 32.9689 17.2151C33.1827 16.1102 34.1094 15.2904 35.1787 15.0053C37.8518 14.3637 39.9904 13.5796 41.5942 12.6173C40.7388 15.8963 39.8478 19.318 39.6696 19.8526C38.2439 22.4901 31.0442 25.3058 22.4545 25.3058C13.8291 25.3058 6.62942 22.4901 5.23938 19.8526C5.09681 19.4605 4.4909 17.1438 3.99191 15.0409C3.84934 14.4707 3.27907 14.1142 2.70879 14.2568C2.13852 14.3994 1.7821 14.9696 1.92467 15.5399C2.887 19.3893 3.17214 20.316 3.27907 20.6011C3.31471 20.6724 3.38599 20.8149 3.38599 20.8149C5.3463 24.5574 13.6865 27.4444 22.4545 27.4444C30.866 27.4444 38.8854 24.8068 41.2735 21.3139C41.4873 21.0288 41.6299 20.6724 41.7012 20.316C42.3071 18.1418 44.802 9.05307 44.802 9.05307C44.8733 8.76794 44.909 8.44716 44.909 8.16202C44.909 2.887 33.3253 0 22.4545 0ZM34.644 12.9737C32.755 13.437 31.2937 14.934 30.866 16.8587C30.6165 18.0349 29.6898 18.9259 28.5493 19.1041C26.4464 19.4605 24.4148 19.6388 22.4545 19.6388C20.4942 19.6388 18.4269 19.4605 16.3597 19.1041C15.2191 18.9259 14.2568 17.9992 14.043 16.8587C13.6509 14.9697 12.1539 13.437 10.3005 13.0093C4.27704 11.5124 2.13852 9.51642 2.13852 8.19767C2.13852 6.84327 4.2414 5.31066 7.66304 4.17012C11.6193 2.85136 16.8587 2.13852 22.4545 2.13852C28.0503 2.13852 33.2896 2.85136 37.2459 4.17012C40.6675 5.31066 42.7704 6.84327 42.7704 8.19767C42.7704 9.51642 40.6319 11.5124 34.644 12.9737Z"
    fill="#444B54" />
</svg>