<?xml version="1.0" encoding="UTF-8"?>
<svg width="22px" height="22px" viewBox="0 0 22 22" version="1.1" xmlns="http://www.w3.org/2000/svg" xmlns:xlink="http://www.w3.org/1999/xlink">
    <title>faq (1)</title>
    <g id="Page-1" stroke="none" stroke-width="1" fill="none" fill-rule="evenodd">
        <g id="faq-(1)" fill="#000000" fill-rule="nonzero">
            <path d="M14.2537227,7.90019141 L14.2537227,0 L0,0 L0,11.1253828 L2.16347656,11.1253828 L2.16347656,13.5411719 L5.39326562,11.1253828 L8.26194531,11.1253828 L8.26194531,19.5842109 L16.6927148,19.5842109 L19.9224609,22 L19.9224609,19.5842109 L22,19.5842109 L22,7.90019141 L14.2537227,7.90019141 Z M4.96448047,9.83632031 L3.45253906,10.9672148 L3.45253906,9.83632031 L1.2890625,9.83632031 L1.2890625,1.2890625 L12.9646602,1.2890625 L12.9646602,7.90019141 L9.48285938,7.87642969 L7.48150391,2.57309766 L6.40943359,2.57421484 L4.39097656,7.87389453 L5.59560547,8.33271484 L6.07311719,7.07888672 L7.80407031,7.07888672 L8.26190234,8.29210938 L8.26190234,9.83632031 L4.96448047,9.83632031 Z M7.31762109,5.78982422 L6.56412109,5.78982422 L6.94258984,4.79608594 L7.31762109,5.78982422 Z M20.7109375,18.2951484 L18.6333984,18.2951484 L18.6333984,19.426043 L17.1214141,18.2951484 L9.55100781,18.2951484 L9.55100781,9.18925391 L20.7109375,9.18925391 L20.7109375,18.2951484 Z" id="Shape"></path>
            <path d="M14.8503008,16.4720703 C15.4296055,16.4720703 15.9694648,16.3013555 16.4236016,16.0086094 L17.2950937,16.8801016 L18.2065898,15.9686055 L17.3272773,15.08925 C17.6030078,14.6443945 17.7627227,14.1203906 17.7627227,13.5596484 C17.7627227,11.9537344 16.4562148,10.6472266 14.8503008,10.6472266 C13.2443867,10.6472266 11.9378789,11.9537344 11.9378789,13.5596484 C11.9378789,15.1655625 13.2443867,16.4720703 14.8503008,16.4720703 L14.8503008,16.4720703 Z M14.8503008,11.936332 C15.7454258,11.936332 16.4736602,12.6645664 16.4736602,13.5596914 C16.4736602,13.7608711 16.4366211,13.9535 16.369418,14.1314336 L15.684668,13.4466836 L14.7731719,14.3581797 L15.4734336,15.0584844 C15.2814492,15.1386211 15.0709883,15.1830508 14.8503008,15.1830508 C13.9551758,15.1830508 13.2269414,14.4548164 13.2269414,13.5596914 C13.2269414,12.6645664 13.9551758,11.936332 14.8503008,11.936332 L14.8503008,11.936332 Z" id="Shape"></path>
        </g>
    </g>
</svg>