<svg xmlns="http://www.w3.org/2000/svg" viewBox="0 0 32 32"><defs><style>.cls-1{fill:none;}.cls-2{fill:#bee0da;}.cls-3{fill:#4e5271;}.cls-4{fill:#001912;}.cls-5{fill:#336;}.cls-6{fill:#6bc2c6;}.cls-7{fill:#5bc4f1;}</style></defs><g id="Camada_2" data-name="Camada 2"><g id="Camada_1-2" data-name="Camada 1"><rect class="cls-1" width="32" height="32"/><path class="cls-2" d="M12.3,5.83c-.17.08-2.88-4.27-4-2.88s-1.8,7.18-1.8,7.18Z"/><path class="cls-3" d="M11.59,7.05c-.11,0-1.8-2.73-2.56-1.84S7.88,9.77,7.88,9.77Z"/><path class="cls-3" d="M20.39,6.3c.16.07,2.69-4,3.81-2.72s1.7,6.77,1.7,6.77Z"/><path class="cls-2" d="M21.06,7.44c.1,0,1.7-2.57,2.42-1.73S24.56,10,24.56,10Z"/><path class="cls-3" d="M16.19,4.82C9.41,4.82,3.93,9.94,3.93,16.25S9.41,27.67,16.19,27.67s12.26-5.12,12.26-11.42S23,4.82,16.19,4.82m0,22.78v0Z"/><path class="cls-2" d="M18.77,16.2c0-6.12-.5-11.13-2.2-11.37h-.22C9.7,4.56,4,9.74,3.79,16s5.54,12,12.78,11.63v-.09C18.27,27.26,18.77,22.32,18.77,16.2Z"/><path class="cls-2" d="M21,16.79s-2.61-1.25-4.7,0l2.35,2.51Z"/><path class="cls-2" d="M22.78,7.91a4.38,4.38,0,0,0-3.16.93L20.13,10a4.82,4.82,0,0,1,2.76-1.58Z"/><path class="cls-2" d="M19.42,8.93s.26,1.28.26,1.28H20Z"/><ellipse class="cls-4" cx="22.96" cy="13.1" rx="3.91" ry="3.1"/><ellipse class="cls-4" cx="18.24" cy="22.25" rx="1.8" ry="1.68"/><path class="cls-4" d="M16.52,17.26l2,2.15,2-2.12A5.43,5.43,0,0,0,16.52,17.26Z"/><path class="cls-3" d="M13.86,7.86A4.41,4.41,0,0,1,17,8.79l-.52,1.13a4.78,4.78,0,0,0-2.76-1.58Z"/><path class="cls-3" d="M17.31,8.91c0,.05-.57,1.17-.57,1.17l.21.16Z"/><rect class="cls-5" x="26.79" y="14.08" width="2.41" height="0.69" rx="0.34" transform="translate(-2.17 5.38) rotate(-10.57)"/><rect class="cls-5" x="27.02" y="15.3" width="2.41" height="0.69" rx="0.34" transform="translate(-2.39 5.45) rotate(-10.57)"/><path class="cls-6" d="M25.75,19.41l-.07.17a12.44,12.44,0,0,1-4.56,5.51l-.21.13,1.73.71.25-.16-1.45-.6a12.75,12.75,0,0,0,4.41-5.35L27.19,21c0-.07.07-.14.11-.22Z"/><path class="cls-5" d="M11.05,25.09a12.44,12.44,0,0,1-4.56-5.51l-.06-.17L4.92,20.73a.37.37,0,0,0,0,.11L5,21l1.3-1.14a12.62,12.62,0,0,0,4.4,5.35l-1.41.59.2.13.05,0,1.69-.7Z"/><rect class="cls-7" x="21.44" y="11.38" width="0.94" height="3.42" rx="0.47" transform="translate(20.17 -12.38) rotate(55.25)"/><rect class="cls-7" x="21.44" y="11.38" width="0.94" height="3.42" rx="0.47" transform="translate(46.38 5.82) rotate(132.62)"/><ellipse class="cls-4" cx="13.65" cy="13.21" rx="4.41" ry="3.5"/><path class="cls-7" d="M13.77,13a.81.81,0,0,0,.85-.75.69.69,0,0,0-.08-.32,1.5,1.5,0,1,1-1.14,1.45,1.62,1.62,0,0,1,.07-.44A.77.77,0,0,0,13.77,13Z"/><path class="cls-3" d="M16.35,27.71c-2.88,0-8.21-.75-11.16-5.84A11.07,11.07,0,0,1,6.47,8.92c.18-1.13,1-6.19,2.17-6.41h.14C9.87,2.5,11.6,4.72,12,5.26a13.55,13.55,0,0,1,5.82-.32l-.26.16A13.69,13.69,0,0,0,12,5.58l-.11,0-.06-.09c-.57-.78-2.18-2.72-3-2.72H8.7C8,3,7.13,6.69,6.76,9v0l0,0A10.77,10.77,0,0,0,5.45,21.72c4.05,7,12.72,5.53,12.81,5.51l.27.21A9.06,9.06,0,0,1,16.35,27.71Z"/><rect class="cls-5" x="2.57" y="15.1" width="2.41" height="0.69" rx="0.34" transform="translate(2.9 -0.43) rotate(10.57)"/><rect class="cls-5" x="2.8" y="13.88" width="2.41" height="0.69" rx="0.34" transform="translate(2.68 -0.49) rotate(10.57)"/></g></g></svg>